<svg xmlns="http://www.w3.org/2000/svg" viewBox="0 0 56 56"><defs><style>.cls-1{fill:#e95644;}.cls-2{fill:#fff;}</style></defs><title>musicMapPin</title><g id="Layer_1" data-name="Layer 1"><g id="pU8cQ8.tif"><path class="cls-1" d="M28.05,55h-.11c0-.13-.07-.21-.12-.3L16.6,35.16C15.4,33.07,14.24,31,13,28.91a19,19,0,0,1-2.88-8.09A17.91,17.91,0,0,1,15.88,5.69a17.71,17.71,0,0,1,9.86-4.56A5.33,5.33,0,0,0,26.79,1h2.37c0,.08.12,0,.19.05a17.38,17.38,0,0,1,4.28.85,17.78,17.78,0,0,1,10,8.14,17.56,17.56,0,0,1,2.33,10.4,17.75,17.75,0,0,1-1.43,5.69,29.85,29.85,0,0,1-1.65,3Q35.49,42,28.14,54.78C28.1,54.85,28,54.91,28.05,55Z"/></g><g id="I0zPzx.tif"><path class="cls-2" d="M19.83,30a4.64,4.64,0,0,0-.7-.16,4.21,4.21,0,0,1-1.75-.87,2,2,0,0,1,.09-3.28,4.51,4.51,0,0,1,2.32-.91,5.48,5.48,0,0,1,3.38.61v-.23q0-6,0-12c0-.2,0-.28.25-.33L37.5,8.92l.09,0s.09,0,.08,0,0,.1,0,.14V23.76a2.55,2.55,0,0,0-.17.43A2.89,2.89,0,0,1,36,25.55a5.48,5.48,0,0,1-4.77-.11,3.07,3.07,0,0,1-.87-.65,1.94,1.94,0,0,1,0-2.8,4.08,4.08,0,0,1,2.34-1.15,5.38,5.38,0,0,1,3.61.56h0V11.89L34,12.52l-9.31,2.54c-.16,0-.21.1-.21.27,0,3.95,0,7.9,0,11.85a2.24,2.24,0,0,1-.9,1.85,4.53,4.53,0,0,1-2.32.92s-.1,0-.12,0Z"/></g></g></svg>